HIERARCHY
ROOT pelvis
{
  OFFSET 0 100 0
  CHANNELS 6 Xposition Yposition Zposition Zrotation Xrotation Yrotation
  JOINT pelvis_right_femur
  {
    OFFSET -10.78128 -3.44521 -0.5502486
    CHANNELS 3 Zrotation Xrotation Yrotation
    JOINT right_femur_tibia
    {
      OFFSET -0.8047443 -44.0398 -0.1307829
      CHANNELS 3 Zrotation Xrotation Yrotation
      JOINT right_tibia_foot
      {
        OFFSET 3.006224 -47.83518 -5
        CHANNELS 3 Zrotation Xrotation Yrotation
        End Site
        {
          OFFSET 0 -5 15
        }
      }
    }
  }
  JOINT pelvis_left_femur
  {
    OFFSET 10.78128 -3.44521 -0.5502486
    CHANNELS 3 Zrotation Xrotation Yrotation
    JOINT left_femur_tibia
    {
      OFFSET 0.8047443 -44.0398 -0.1307829
      CHANNELS 3 Zrotation Xrotation Yrotation
      JOINT left_tibia_foot
      {
        OFFSET -4.370144 -48.10324 -4.275266
        CHANNELS 3 Zrotation Xrotation Yrotation
        End Site
        {
          OFFSET 0 -5 15
        }
      }
    }
  }
  JOINT pelvis_spine1
  {
    OFFSET 0 6.468898 -3.129235
    CHANNELS 3 Zrotation Xrotation Yrotation
    JOINT spine1
    {
      OFFSET 0 23.15396 4.99043
      CHANNELS 3 Zrotation Xrotation Yrotation
      JOINT spine2
      {
        OFFSET 0 20.79997 -5.064912
        CHANNELS 3 Zrotation Xrotation Yrotation
        JOINT neck
        {
          OFFSET 0 14.38658 9.616178
          CHANNELS 3 Zrotation Xrotation Yrotation
          End Site
          {
            OFFSET 0 20 0
          }
        }
      }
      JOINT right_manubrium
      {
        OFFSET -5.722621 16.35077 3.967754
        CHANNELS 3 Zrotation Xrotation Yrotation
        JOINT right_clavicle
        {
          OFFSET -13.16364 1.694482 -4.693211
          CHANNELS 3 Zrotation Xrotation Yrotation
          JOINT right_humerus
          {
            OFFSET -28.5034 -0.3100689 -2.792744
            CHANNELS 3 Zrotation Xrotation Yrotation
            JOINT right_radius
            {
              OFFSET -25.15693 0.02248979 -1.271978
              CHANNELS 3 Zrotation Xrotation Yrotation
              End Site
              {
                OFFSET -15 0 0
              }
            }
          }
        }
      }
      JOINT left_manubrium
      {
        OFFSET 5.722621 16.35077 3.967754
        CHANNELS 3 Zrotation Xrotation Yrotation
        JOINT left_clavicle
        {
          OFFSET 13.16364 1.694482 -4.693211
          CHANNELS 3 Zrotation Xrotation Yrotation
          JOINT left_humerus
          {
            OFFSET 29.39168 -1.063119 -2.237045
            CHANNELS 3 Zrotation Xrotation Yrotation
            JOINT left_radius
            {
              OFFSET 24.59957 -0.9528479 0.9047498
              CHANNELS 3 Zrotation Xrotation Yrotation
              End Site
              {
                OFFSET 15 -0 -0
              }
            }
          }
        }
      }
    }
  }
}
MOTION
Frames: 15
Frame Time: 0.0416666666667
0 103.5113 0 0.921902 -3.312184 0.04293262 2.296954 -12.19507 7.639567 -0 41.19847 -0 -6.585155 -15.90092 -3.835097 -6.133999 12.23774 -24.10671 -0 5.98719 -0 0.699025 -18.48537 23.58019 -0.1991273 -1.398247 4.391856 0.002711974 7.563145 -7.025235 1.823865 22.8229 7.530349 4.990592 -21.97408 8.654142 5.664161 -18.58457 10.30668 90.04144 36.52557 -24.90638 -0 0 16.09249 -6.447361 8.891129 1.685361 6.34091 -20.79061 -3.344276 -102.2086 42.75322 30.4908 0 0 -25.1073 -9.820872 18.68095 29.58865
0.1735798 103.6567 1.177111 0.2582897 -2.643599 0.004077708 3.102082 -14.27486 8.706437 -0 42.88362 -0 -6.517868 -15.33498 -4.562984 -5.651047 12.06955 -24.13105 -0 6.011543 -0 -1.515894 -19.62615 22.83457 -0.2352811 -1.503197 4.303588 0.06345556 7.665519 -7.102739 1.850367 22.68646 7.578944 4.972409 -22.06895 8.800465 5.862879 -18.50707 10.32439 90.04393 36.45626 -25.0999 -0 0 16.06419 -6.190116 8.962381 1.685045 6.449855 -20.80381 -3.319557 -101.8232 42.53976 29.98654 0 0 -25.19812 -9.297842 18.66875 28.98103
0.3687592 103.5944 2.654791 -0.008685045 -1.288891 0.006737593 3.884201 -18.97706 8.148396 -0 38.26493 -0 -6.243621 -14.00358 -4.377176 -5.679001 12.13611 -22.94751 -0 5.551834 -0 -0.2850921 -20.96009 22.32109 -0.1644571 -1.268875 4.232753 0.389935 7.853897 -7.341954 1.601243 22.20503 7.791004 5.045746 -22.33757 8.580447 5.894895 -18.08461 10.55557 89.95723 37.06733 -24.98079 -0 0 15.06404 -7.72408 10.13184 2.886833 6.576847 -21.17693 -3.095745 -99.25743 40.58586 27.4393 0 0 -25.6287 -7.731823 17.77044 26.92167
0.5718582 103.2943 4.493568 -0.1952177 -0.3510658 0.05828526 4.305381 -22.94779 7.107698 -0 33.75496 -0 -6.26742 -12.20171 -3.987115 -5.664159 12.45071 -21.68796 -0 5.369417 -0 0.4513147 -22.08864 21.46953 -0.2420543 -1.103428 4.069796 0.7333088 7.90223 -7.532994 1.435294 21.97648 7.858635 4.998647 -22.58564 8.417857 5.920787 -17.74432 10.72116 89.70946 37.2156 -24.7183 -0 0 14.31506 -8.660262 10.69501 3.749007 6.487333 -21.25973 -2.998265 -97.61211 39.29667 25.72235 0 0 -25.66024 -6.926138 17.13234 25.6809
0.7836872 102.8089 6.673818 -0.3266383 0.7884426 0.1571444 4.794852 -26.57734 6.643317 -0 29.39434 -0 -5.950338 -10.88148 -3.747788 -5.726006 12.73308 -20.78534 -0 5.323805 -0 1.409022 -23.01633 20.97847 -0.3068948 -0.9327948 3.971243 1.000441 7.948452 -7.670849 1.286084 21.80587 7.900464 4.961234 -22.74526 8.229216 5.897249 -17.48157 10.86393 89.46962 37.36129 -24.3985 -0 0 13.68313 -9.631677 11.19438 4.549203 6.376141 -21.33668 -2.931979 -96.28258 38.13763 24.37253 0 0 -25.64986 -6.319159 16.53737 24.71771
0.9999968 102.1597 9.23217 -0.4468603 1.861882 0.3180832 5.253075 -29.79518 6.2237 -0 25.24579 -0 -5.688529 -9.417254 -3.44494 -5.779377 13.11529 -20.00087 -0 5.600318 -0 2.239952 -23.7019 20.4672 -0.394378 -0.786746 3.883236 1.236404 7.980765 -7.77824 1.165012 21.69291 7.908599 4.906272 -22.87045 8.057316 5.874407 -17.26922 10.98618 89.19828 37.42167 -24.03896 -0 0 13.16587 -10.46198 11.5568 5.246951 6.23038 -21.35604 -2.897526 -95.22485 37.15525 23.29688 0 0 -25.55176 -5.876141 16.02413 23.96093
1.216475 101.4037 12.19638 -0.6248138 2.914001 0.5641811 5.798612 -32.58752 6.008709 -0 21.65146 -0 -5.508208 -7.87586 -3.125086 -5.776104 13.55616 -19.41735 -0 6.265885 -0 2.75298 -24.11678 19.8906 -0.4886761 -0.6507682 3.825887 1.431695 8.007501 -7.85083 1.061783 21.62237 7.89453 4.847677 -22.95295 7.885363 5.838223 -17.11015 11.09282 88.90401 37.45509 -23.62696 -0 0 12.74868 -11.24501 11.8453 5.883418 6.063327 -21.34416 -2.883514 -94.37129 36.29746 22.45352 0 0 -25.39268 -5.556613 15.56696 23.37411
1.42781 100.6039 15.60789 -0.8942679 3.83502 0.9177771 6.426943 -34.74864 5.882067 -0 18.81971 -0 -5.547313 -6.212185 -2.733623 -5.673295 14.05431 -18.96744 -0 7.490062 -0 2.798452 -24.11823 19.11337 -0.5932906 -0.526584 3.788512 1.599881 8.030325 -7.897375 0.9739707 21.58353 7.862077 4.782914 -23.00826 7.718451 5.798313 -16.9916 11.18837 88.58182 37.45965 -23.16804 -0 0 12.41292 -11.97444 12.06958 6.471423 5.878227 -21.30051 -2.884527 -93.66583 35.53562 21.77769 0 0 -25.1777 -5.320132 15.15612 22.90125
1.62852 99.84244 19.51897 -1.302206 4.546697 1.393589 7.1576 -36.08867 5.787125 -0 16.95006 -0 -5.894938 -4.512335 -2.269458 -5.417396 14.57687 -18.56327 -0 9.513047 -0 2.165394 -23.55184 17.97592 -0.7060403 -0.4110501 3.773531 1.742166 8.051448 -7.918559 0.8985339 21.57033 7.814778 4.714316 -23.03821 7.553831 5.753199 -16.91179 11.27515 88.23058 37.44845 -22.65723 -0 0 12.15134 -12.6739 12.24739 7.025718 5.678392 -21.23035 -2.896374 -93.07859 34.84829 21.24442 0 0 -24.91297 -5.146959 14.7822 22.51952
1.815608 99.21873 23.98165 -1.866479 4.92757 1.974008 7.969969 -36.32483 5.633683 -0 16.19808 -0 -6.597716 -2.991867 -1.767548 -4.97741 15.03227 -18.02654 -0 12.71566 -0 0.742508 -22.1837 16.37018 -0.8268857 -0.3036593 3.778791 1.862696 8.07271 -7.917334 0.8337711 21.57692 7.755229 4.642085 -23.04745 7.392226 5.704998 -16.8662 11.35529 87.84944 37.4246 -22.09538 -0 0 11.95558 -13.35133 12.38846 7.555777 5.466586 -21.13614 -2.916038 -92.58301 34.21666 20.82591 0 0 -24.6036 -5.016883 14.43762 22.20278
1.992456 98.8524 29.02701 -2.561913 4.877852 2.583666 8.818823 -35.21316 5.372801 -0 16.53601 -0 -7.578871 -2.010537 -1.355123 -4.361507 15.21923 -17.12305 -0 17.60973 -0 -1.442673 -19.79687 14.30665 -0.9551327 -0.2035741 3.804437 1.962955 8.095856 -7.894839 0.7784123 21.59914 7.685513 4.566973 -23.03768 7.233519 5.65407 -16.85298 11.43019 87.43782 37.3919 -21.48131 -0 0 11.82125 -14.01728 12.50173 8.069484 5.245147 -21.02048 -2.941258 -92.16155 33.62623 20.50552 0 0 -24.25347 -4.916058 14.11641 21.93414
2.172278 98.86632 34.63113 -3.262943 4.329971 3.069092 9.570236 -32.6141 4.984726 -0 17.56137 -0 -8.588796 -1.93458 -1.237567 -3.660778 14.77815 -15.62264 -0 24.71956 -0 -4.060908 -16.32901 12.03556 -1.090199 -0.1105809 3.850029 2.044353 8.122636 -7.852407 0.7316642 21.63314 7.607463 4.48947 -23.01036 7.07835 5.601329 -16.87011 11.50098 86.99592 37.35156 -20.81567 -0 0 11.74468 -14.67877 12.59409 8.572627 5.016467 -20.88552 -2.970301 -91.79987 33.06443 20.26866 0 0 -23.86631 -4.832178 13.81354 21.69838
2.373345 99.35346 40.67756 -3.721937 3.296406 3.232515 9.969985 -28.57009 4.513887 -0 18.449 -0 -9.236434 -2.870625 -1.590569 -3.043905 13.19969 -13.51985 -0 34.17958 -0 -6.515494 -12.11338 10.06501 -1.231184 -0.02465749 3.915523 2.107438 8.154824 -7.790994 0.6930555 21.67553 7.522814 4.410217 -22.96604 6.927559 5.547519 -16.91617 11.56843 86.52465 37.304 -20.09985 -0 0 11.72368 -15.34202 12.67167 9.069481 4.783082 -20.7335 -3.001811 -91.48721 32.52095 20.10438 0 0 -23.44572 -4.755252 13.52496 21.48354
2.600546 100.3283 46.94083 -3.633236 1.874422 2.946677 9.697974 -23.28393 4.056961 -0 18.31629 -0 -9.207122 -4.43817 -2.338244 -2.690443 9.984292 -11.24057 -0 45.09001 -0 -8.159565 -7.976834 9.015042 -1.376767 0.05391669 4.000669 2.152364 8.194255 -7.711689 0.6623702 21.72297 7.433421 4.33001 -22.90478 6.782479 5.493624 -16.98961 11.63306 86.02639 37.24853 -19.33762 -0 0 11.75649 -16.01136 12.74006 9.562623 4.54805 -20.56694 -3.03471 -91.21491 31.98723 20.00314 0 0 -22.996 -4.676566 13.24739 21.27943
2.826857 101.6826 53.12311 -2.843923 0.229422 2.288199 8.608202 -17.1181 3.67716 -0 16.89826 -0 -8.598564 -5.992174 -3.051418 -2.685677 4.978295 -9.498612 -0 55.15466 -0 -8.649761 -4.955456 9.272465 -1.52496 0.1246596 4.104969 2.178861 8.2428 -7.615853 0.6395591 21.77199 7.341453 4.249949 -22.82629 6.644921 5.440814 -17.08858 11.69506 85.50563 37.18389 -18.53592 -0 0 11.84144 -16.68949 12.80483 10.05284 4.315218 -20.38908 -3.068129 -90.97594 31.45661 19.9563 0 0 -22.52283 -4.588688 12.97825 21.07775
